<svg width="240" height="240" viewBox="0 0 240 240" fill="none" xmlns="http://www.w3.org/2000/svg">
<path d="M19.9941 119.751C19.9941 65.1628 64.2888 20.9191 118.895 21.0001C173.349 21.0812 217.739 65.751 217.493 120.205C217.417 136.959 213.165 152.722 205.732 166.519C202.997 171.592 201.406 177.236 201.228 182.997C201.214 183.416 201.209 183.838 201.209 184.259C201.209 198.654 208.698 211.293 219.994 218.504H118.745L118.747 218.501H118.745C64.2078 218.499 19.9941 174.288 19.9941 119.751Z" fill="#436E67"/>
<path d="M74.047 95.1115C75.7421 92.7657 78.125 90.795 81.1933 89.2018C84.2616 87.6086 87.8139 86.812 91.8455 86.812C95.8795 86.812 99.3993 87.5947 102.41 89.1578C105.42 90.7232 107.787 92.6638 109.512 94.9818C111.235 97.2998 112.624 100.023 113.676 103.152C115.429 108.367 116.306 113.901 116.306 119.753C116.306 130.241 114.028 138.556 109.468 144.698C107.773 147.016 105.42 148.928 102.41 150.434C99.3993 151.939 95.9072 152.694 91.9335 152.694C87.9574 152.694 84.4376 151.925 81.3693 150.39C78.301 148.854 75.9019 146.955 74.179 144.695C72.4538 142.435 71.0366 139.742 69.9274 136.613C68.2323 131.63 67.3848 125.982 67.3848 119.665C67.3848 113.871 68.0725 108.918 69.4457 104.803C70.8166 100.688 72.3496 97.4573 74.047 95.1115ZM91.7575 137.22C97.7783 137.22 100.789 131.542 100.789 120.186V119.665C100.789 108.019 97.8084 102.195 91.8455 102.195C85.8826 102.195 82.9023 108.033 82.9023 119.709C82.9023 131.385 85.8525 137.22 91.7575 137.22Z" fill="white"/>
<path d="M162.858 136.178C165.255 136.178 166.964 136.454 167.988 137.005C169.009 137.556 169.697 138.394 170.046 139.524C170.396 140.654 170.572 142.132 170.572 143.957C170.572 145.781 170.382 147.245 170.002 148.345C169.623 149.447 168.995 150.2 168.117 150.605C166.832 151.3 165.019 151.647 162.682 151.647H128.403C126.298 151.647 124.487 150.864 122.966 149.301C121.445 147.736 120.687 145.911 120.687 143.825C120.687 140.696 121.783 137.815 123.976 135.178C126.166 132.543 128.811 130.282 131.909 128.397C135.008 126.515 138.104 124.66 141.202 122.835C144.3 121.01 146.945 118.938 149.138 116.62C151.329 114.304 152.426 111.84 152.426 109.233C152.426 108.712 152.22 107.973 151.813 107.017C151.403 106.06 150.949 105.278 150.453 104.668C149.955 104.059 149.182 103.494 148.128 102.973C147.077 102.452 145.616 102.191 143.745 102.191C141.874 102.191 140.253 102.874 138.879 104.233C137.506 105.595 136.733 106.943 136.557 108.274L136.207 110.272V110.794C136.207 112.067 136.163 113.026 136.075 113.663C135.987 114.299 135.709 115.024 135.241 115.835C134.364 117.224 132.085 117.921 128.403 117.921C124.311 117.921 121.884 116.821 121.127 114.619C120.833 113.693 120.687 112.215 120.687 110.187C120.687 104.161 122.864 98.7565 127.22 93.9769C131.573 89.1973 137.272 86.8052 144.317 86.8052C151.361 86.8052 157.074 89.2251 161.458 94.0626C165.841 98.9024 168.034 104.421 168.034 110.62C168.034 113.922 167.302 117.051 165.841 120.005C164.38 122.96 162.627 125.336 160.582 127.131C156.256 130.954 152.398 133.534 149.008 134.868L146.815 135.736V136.169H162.858V136.178Z" fill="white"/>
</svg>
